<?xml version="1.0" encoding="UTF-8"?>
<svg xmlns="http://www.w3.org/2000/svg" viewBox="0 0 1095 1095" width="1095" height="1095">
<path d="M153.06 0.17C416.06 0.17 679.06 0.17 942.05 0.17C947.22 2.67 956.33 2.74 962.34 4.29C975.52 7.7 988.61 12.5 1000.74 18.73C1038.65 38.2 1070.32 73.43 1084.74 113.72C1087.42 121.22 1089.97 128.86 1091.65 136.66C1092.74 141.7 1092.72 148.38 1094.83 152.89C1094.83 416.29 1094.83 679.7 1094.83 943.1C1092.16 949.19 1092.2 957.4 1090.48 964.02C1087.73 974.59 1083.66 985.51 1078.8 995.31C1059.29 1034.66 1027.36 1064.99 987.12 1082.57C978.53 1086.32 969.11 1089.36 959.97 1091.46C954.6 1092.69 947.9 1092.74 943.01 1094.83C679.39 1094.83 415.77 1094.83 152.15 1094.83C147.59 1092.78 140.88 1092.67 135.73 1091.59C126.89 1089.74 117.68 1086.65 109.31 1083.24C70.65 1067.47 38.81 1037.99 19.26 1001.25C13.02 989.52 7.99 976.63 4.59 963.78C2.95 957.55 2.82 948.29 0.17 942.95C0.17 679.6 0.17 416.25 0.17 152.9C2.13 148.86 2.18 143.08 3.17 138.55C5.16 129.44 7.95 120.45 11.27 111.74C26.25 72.37 56.41 38.66 93.65 19.15C106 12.68 119.25 7.92 132.7 4.32C139.03 2.63 147.43 2.97 153.06 0.17ZM515.8 685.03C548.37 684.89 580.94 684.99 613.5 685.02C635.08 685.05 656.98 686.1 678.46 683.7C708.12 680.37 738.12 670.51 763.88 655.4C801.3 633.45 832.67 602.82 855.32 565.8C924.03 453.49 892.46 302.69 787.3 225.17C756.99 202.83 719.99 188.11 682.5 184.14C668.55 182.66 654.51 182.98 640.5 183.01C624.5 183.04 608.5 183 592.5 183.02C529.83 183.09 467.17 183.02 404.5 183.02C368.17 183.02 331.83 183.03 295.5 183.02C284.17 183.02 272.83 183.03 261.5 183C255.04 182.99 248.15 182.37 241.82 183.5C241.82 223.83 241.82 264.17 241.82 304.5C252.26 306.5 268.41 305.05 279.5 305.03C303.5 304.99 327.5 304.98 351.5 305.05C429.5 305.29 507.5 305.21 585.5 305.03C602.17 304.99 618.83 305.08 635.5 305.06C647.74 305.05 660.08 304.54 672.22 306.43C704.76 311.51 733.94 332.5 751.95 359.62C791.32 418.9 775.54 504.76 716.09 544.58C704.62 552.26 691.84 558.54 678.33 561.67C661.61 565.56 644.53 564.77 627.5 564.81C603.83 564.86 580.17 564.9 556.5 564.83C548.17 564.81 539.83 564.82 531.5 564.81C526.32 564.81 520.8 564.36 515.8 565.5C515.8 605.34 515.8 645.18 515.8 685.03ZM389.5 483.19C340.28 513.01 291.06 542.83 241.84 572.65C241.84 682.11 241.84 791.56 241.84 901.01C291.39 869.18 340.95 837.34 390.5 805.5C389.84 730.86 390.18 656.15 390.48 581.5C390.58 558.5 390.74 535.47 390.48 512.47C390.39 504.7 392.01 489.84 389.5 483.19Z" fill="#fefefe" fill-rule="evenodd" stroke="#fefefe" stroke-width="0.25" stroke-linejoin="round"/>
<path d="M515.8 685.03C515.8 645.18 515.8 605.34 515.8 565.5C520.8 564.36 526.32 564.81 531.5 564.81C539.83 564.82 548.17 564.81 556.5 564.83C580.17 564.9 603.83 564.86 627.5 564.81C644.53 564.77 661.61 565.56 678.33 561.67C691.84 558.54 704.62 552.26 716.09 544.58C775.54 504.76 791.32 418.9 751.95 359.62C733.94 332.5 704.76 311.51 672.22 306.43C660.08 304.54 647.74 305.05 635.5 305.06C618.83 305.08 602.17 304.99 585.5 305.03C507.5 305.21 429.5 305.29 351.5 305.05C327.5 304.98 303.5 304.99 279.5 305.03C268.41 305.05 252.26 306.5 241.82 304.5C241.82 264.17 241.82 223.83 241.82 183.5C248.15 182.37 255.04 182.99 261.5 183C272.83 183.03 284.17 183.02 295.5 183.02C331.83 183.03 368.17 183.02 404.5 183.02C467.17 183.02 529.83 183.09 592.5 183.02C608.5 183 624.5 183.04 640.5 183.01C654.51 182.98 668.55 182.66 682.5 184.14C719.99 188.11 756.99 202.83 787.3 225.17C892.46 302.69 924.03 453.49 855.32 565.8C832.67 602.82 801.3 633.45 763.88 655.4C738.12 670.51 708.12 680.37 678.46 683.7C656.98 686.1 635.08 685.05 613.5 685.02C580.94 684.99 548.37 684.89 515.8 685.03ZM254 303.5C251.67 303.5 249.33 303.5 247 303.5C249.33 303.5 251.67 303.5 254 303.5ZM286 303.5C278.67 303.5 271.33 303.5 264 303.5C271.33 303.5 278.67 303.5 286 303.5ZM370 303.5C363 303.5 356 303.5 349 303.5C356 303.5 363 303.5 370 303.5ZM491 303.5C488.33 303.5 485.67 303.5 483 303.5C485.67 303.5 488.33 303.5 491 303.5ZM523 303.5C517 303.5 511 303.5 505 303.5C511 303.5 517 303.5 523 303.5ZM558 303.5C554.67 303.5 551.33 303.5 548 303.5C551.33 303.5 554.67 303.5 558 303.5ZM612 303.5C608.33 303.5 604.67 303.5 601 303.5C604.67 303.5 608.33 303.5 612 303.5ZM628 303.5C624 303.5 620 303.5 616 303.5C620 303.5 624 303.5 628 303.5ZM657 303.5C655 303.5 653 303.5 651 303.5C653 303.5 655 303.5 657 303.5ZM664 565.5C662.33 565.5 660.67 565.5 659 565.5C660.67 565.5 662.33 565.5 664 565.5Z" fill="#041939" fill-rule="evenodd" stroke="#041939" stroke-width="0.25" stroke-linejoin="round"/>
<path d="M389.5 483.19C392.01 489.84 390.39 504.7 390.48 512.47C390.74 535.47 390.58 558.5 390.48 581.5C390.18 656.15 389.84 730.86 390.5 805.5C340.95 837.34 291.39 869.18 241.84 901.01C241.84 791.56 241.84 682.11 241.84 572.65C291.06 542.83 340.28 513.01 389.5 483.19Z" fill="#0154c4" fill-rule="evenodd" stroke="#0154c4" stroke-width="0.25" stroke-linejoin="round"/>
<path d="M0.25 0.25C51.19 0.22 102.12 0.19 153.06 0.17C147.43 2.97 139.03 2.63 132.7 4.32C119.25 7.92 106 12.68 93.65 19.15C56.41 38.66 26.25 72.37 11.27 111.74C7.95 120.45 5.16 129.44 3.17 138.55C2.18 143.08 2.13 148.86 0.17 152.9C0.19 102.02 0.22 51.13 0.25 0.25ZM942.05 0.17C992.95 0.19 1043.85 0.22 1094.75 0.25C1094.78 51.13 1094.81 102.01 1094.83 152.89C1092.72 148.38 1092.74 141.7 1091.65 136.66C1089.97 128.86 1087.42 121.22 1084.74 113.72C1070.32 73.43 1038.65 38.2 1000.74 18.73C988.61 12.5 975.52 7.7 962.34 4.29C956.33 2.74 947.22 2.67 942.05 0.17ZM254 303.5C251.67 303.5 249.33 303.5 247 303.5C249.33 303.5 251.67 303.5 254 303.5ZM286 303.5C278.67 303.5 271.33 303.5 264 303.5C271.33 303.5 278.67 303.5 286 303.5ZM370 303.5C363 303.5 356 303.5 349 303.5C356 303.5 363 303.5 370 303.5ZM491 303.5C488.33 303.5 485.67 303.5 483 303.5C485.67 303.5 488.33 303.5 491 303.5ZM523 303.5C517 303.5 511 303.5 505 303.5C511 303.5 517 303.5 523 303.5ZM558 303.5C554.67 303.5 551.33 303.5 548 303.5C551.33 303.5 554.67 303.5 558 303.5ZM612 303.5C608.33 303.5 604.67 303.5 601 303.5C604.67 303.5 608.33 303.5 612 303.5ZM628 303.5C624 303.5 620 303.5 616 303.5C620 303.5 624 303.5 628 303.5ZM657 303.5C655 303.5 653 303.5 651 303.5C653 303.5 655 303.5 657 303.5ZM664 565.5C662.33 565.5 660.67 565.5 659 565.5C660.67 565.5 662.33 565.5 664 565.5ZM0.17 942.95C2.82 948.29 2.95 957.55 4.59 963.78C7.99 976.63 13.02 989.52 19.26 1001.25C38.81 1037.99 70.65 1067.47 109.31 1083.24C117.68 1086.65 126.89 1089.74 135.73 1091.59C140.88 1092.67 147.59 1092.78 152.15 1094.83C101.51 1094.81 50.88 1094.78 0.25 1094.75C0.22 1044.15 0.19 993.55 0.17 942.95ZM1094.83 943.1C1094.81 993.65 1094.78 1044.2 1094.75 1094.75C1044.17 1094.78 993.59 1094.81 943.01 1094.83C947.9 1092.74 954.6 1092.69 959.97 1091.46C969.11 1089.36 978.53 1086.32 987.12 1082.57C1027.36 1064.99 1059.29 1034.66 1078.8 995.31C1083.66 985.51 1087.73 974.59 1090.48 964.02C1092.2 957.4 1092.16 949.19 1094.83 943.1Z" fill="#000000" fill-rule="evenodd" stroke="#000000" stroke-width="0.25" stroke-linejoin="round"/>
</svg>